<?xml version="1.0" standalone="no"?>
<!DOCTYPE svg PUBLIC "-//W3C//DTD SVG 20010904//EN"
 "http://www.w3.org/TR/2001/REC-SVG-20010904/DTD/svg10.dtd">
<svg version="1.0" xmlns="http://www.w3.org/2000/svg"
 width="454.000000pt" height="127.000000pt" viewBox="0 0 454.000000 127.000000"
 preserveAspectRatio="xMidYMid meet">

<g transform="translate(0.000000,127.000000) scale(0.100000,-0.100000)"
fill="#000000" stroke="none">
<path d="M0 635 l0 -635 2270 0 2270 0 0 635 0 635 -2270 0 -2270 0 0 -635z
m3945 534 c39 -6 86 -19 105 -28 61 -29 101 -112 104 -216 l1 -50 -64 -3
c-110 -5 -250 48 -334 127 -37 35 -39 35 -53 17 -37 -52 6 -104 136 -165 100
-46 153 -60 233 -61 60 0 97 21 97 57 0 25 53 -28 81 -82 19 -36 21 -47 11
-69 -32 -70 -243 -53 -427 35 -91 43 -174 111 -210 173 -50 86 -25 133 82 151
41 6 44 10 74 72 30 63 32 65 63 59 17 -4 63 -11 101 -17z m-3515 -401 c0
-115 1 -115 95 -21 l83 83 56 0 56 0 0 -39 c0 -36 -7 -47 -96 -135 -79 -79
-93 -98 -85 -113 5 -10 68 -76 140 -148 l131 -130 0 -47 0 -48 -57 0 -58 0
-132 132 -133 133 0 -133 0 -132 -55 0 -55 0 0 330 0 330 55 0 55 0 0 -62z
m848 17 c36 -38 42 -50 42 -87 0 -39 -5 -49 -50 -93 l-50 -49 0 -145 0 -145
-47 -48 c-26 -26 -52 -48 -57 -48 -6 0 -30 19 -53 42 l-43 42 0 144 0 143 -50
53 c-44 47 -50 58 -50 97 0 38 5 49 47 91 l47 48 111 0 110 0 43 -45z m252
-191 l0 -235 44 -47 45 -47 45 45 46 44 0 97 0 97 50 43 50 44 0 98 0 97 50 0
c33 0 50 -4 50 -12 1 -7 0 -104 0 -215 0 -111 2 -213 6 -227 6 -24 11 -26 58
-26 47 0 54 -3 94 -45 37 -39 42 -50 42 -90 l0 -45 -345 0 -345 0 0 330 0 330
55 0 55 0 0 -236z m1347 194 l43 -42 -47 -48 c-26 -26 -52 -48 -57 -48 -6 0
-30 19 -53 42 l-43 42 -42 -41 -41 -41 53 -56 c49 -52 56 -56 99 -56 40 0 51
-5 89 -41 l42 -41 0 -144 0 -144 -201 0 -201 0 -44 42 -44 42 47 48 c46 47 49
48 107 48 57 0 62 -2 103 -42 l43 -42 40 39 c22 21 40 43 40 48 0 5 -23 31
-52 58 l-52 49 -96 0 -96 0 -42 43 -42 43 0 142 0 142 202 0 202 0 43 -42z
m553 2 l0 -39 -97 -3 -98 -3 -3 -70 c-2 -38 0 -85 3 -102 6 -31 8 -33 50 -33
l45 0 0 -90 0 -90 -50 0 c-50 0 -50 0 -50 -32 0 -77 2 -78 106 -78 l94 0 0
-40 0 -40 -200 0 -200 0 0 330 0 330 200 0 200 0 0 -40z m235 24 c14 -9 25
-22 25 -30 0 -8 6 -11 15 -8 10 4 18 -3 25 -20 5 -14 12 -26 15 -26 4 0 3 5 0
10 -11 18 5 10 28 -13 19 -19 63 -42 152 -78 37 -15 70 -23 83 -21 8 2 12 -10
12 -33 l0 -35 -59 0 -59 0 -80 80 c-43 44 -82 80 -85 80 -9 0 -9 -317 -1 -347
6 -22 10 -23 148 -23 l141 0 -3 -90 -3 -90 -245 0 -244 0 0 330 0 330 55 0
c34 0 65 -6 80 -16z"/>
<path d="M3836 1161 c33 -31 209 -139 218 -134 15 10 -68 79 -137 113 -57 29
-102 40 -81 21z"/>
</g>
</svg>
